# xmcd CD database file
#
# Track frame offsets:
#	150
#	14155
#	26544
#	40875
#	54280
#	65185
#	75810
#	87652
#	97415
#	109762
#	127300
#	138722
#	150505
#	161012
#
# Disc length: 2343 seconds
#
# Revision: 2
# Processed by: cddbd v1.5.2PL0 Copyright (c) Steve Scherf et al.
# Submitted via: CDex 1.70beta2
#
DISCID=c509250e
DTITLE=Tom Astor - The Best Of
DYEAR=1996
DGENRE=Country
TTITLE0=International Airport
TTITLE1=Von New York Nach L.A.
TTITLE2=Ich Trink' Mein Bier Gern Aus Der Flasche (Halfway House)
TTITLE3=Six Days On The Road
TTITLE4=Ja,Das Sind Stunden (Die Vergisst Man Nie )
TTITLE5=Irgendwo (Duett mit Rattlesnake Anne)
TTITLE6=Freunde
TTITLE7=Sicht weg, Gas weg
TTITLE8=Ich Bin Dafür,Das Wir Dagegen Sind
TTITLE9=Mein Freund Charly
TTITLE10=Blue Jeans,Rock'n'Roll Und Elvis
TTITLE11=Ich Brauch' Eine Kleine Dosis Freiheit
TTITLE12=Highway Helden
TTITLE13=Das schöne Mädchen von der Autobahn
EXTD=Disky -1996 YEAR: 1996
EXTT0=
EXTT1=
EXTT2=
EXTT3=
EXTT4=
EXTT5=
EXTT6=
EXTT7=
EXTT8=
EXTT9=
EXTT10=
EXTT11=
EXTT12=
EXTT13=
PLAYORDER=
